<?xml version="1.0" standalone="no"?>
<!DOCTYPE svg PUBLIC "-//W3C//DTD SVG 20010904//EN"
 "http://www.w3.org/TR/2001/REC-SVG-20010904/DTD/svg10.dtd">
<svg version="1.0" xmlns="http://www.w3.org/2000/svg"
 width="800.000000pt" height="800.000000pt" viewBox="0 0 800.000000 800.000000"
 preserveAspectRatio="xMidYMid meet">

<g transform="translate(0.000000,800.000000) scale(0.100000,-0.100000)"
fill="#000000" stroke="none">
<path d="M3654 5996 l-34 -34 0 -312 0 -312 34 -34 34 -34 317 0 317 0 29 29
29 29 0 322 0 322 -31 29 -31 29 -315 0 -315 0 -34 -34z"/>
<path d="M3740 5175 c0 -48 6 -87 15 -105 27 -53 56 -60 245 -60 242 0 257 9
261 156 l2 79 -261 3 -262 2 0 -75z"/>
<path d="M3806 4949 c-145 -12 -342 -54 -496 -105 -801 -266 -1375 -962 -1485
-1799 -19 -145 -19 -426 -1 -565 67 -494 286 -934 636 -1278 421 -414 952
-632 1540 -632 885 0 1677 523 2021 1335 248 586 230 1248 -50 1820 -117 238
-259 434 -443 611 -378 364 -846 574 -1363 613 -155 12 -214 12 -359 0z m539
-383 c249 -50 493 -152 693 -289 441 -302 725 -772 787 -1304 24 -205 16 -377
-26 -588 -109 -544 -493 -1034 -998 -1277 -911 -437 -1992 -67 -2445 838 -350
698 -211 1557 340 2108 258 257 557 422 909 501 167 37 246 44 445 40 132 -4
205 -11 295 -29z"/>
<path d="M3740 4525 c-672 -99 -1229 -574 -1438 -1226 -61 -191 -77 -301 -77
-539 1 -183 4 -232 23 -328 59 -292 191 -576 372 -797 83 -102 242 -250 350
-328 115 -81 341 -196 469 -237 52 -17 151 -43 220 -57 111 -23 150 -26 331
-27 215 -1 274 6 455 51 379 94 740 334 975 648 193 258 299 514 346 835 24
165 15 440 -20 600 -89 411 -299 759 -611 1014 -341 279 -707 408 -1146 405
-90 -1 -202 -7 -249 -14z m520 -35 c180 -29 335 -77 498 -155 844 -404 1216
-1399 846 -2265 -169 -396 -490 -721 -892 -903 -385 -175 -852 -199 -1257 -65
-356 117 -694 373 -902 683 -349 520 -395 1174 -123 1740 247 514 761 891
1315 964 44 6 94 13 110 15 50 7 336 -2 405 -14z"/>
<path d="M3885 4448 c-710 -39 -1337 -555 -1519 -1249 -82 -309 -73 -659 25
-959 166 -513 570 -917 1082 -1085 174 -57 289 -76 482 -82 635 -20 1215 313
1530 877 99 179 169 394 195 603 18 140 8 415 -19 537 -50 232 -110 381 -223
565 -75 120 -139 199 -257 315 -298 295 -691 465 -1111 482 -36 2 -119 0 -185
-4z m448 -38 c336 -72 625 -230 870 -477 127 -128 210 -245 296 -418 79 -158
121 -278 154 -439 19 -95 22 -141 21 -321 0 -178 -4 -226 -23 -314 -100 -465
-346 -831 -731 -1086 -390 -257 -876 -338 -1340 -220 -424 107 -803 392 -1025
770 -457 775 -227 1766 524 2262 187 124 447 224 669 257 142 22 454 14 585
-14z"/>
<path d="M3957 4412 c-9 -10 -17 -33 -17 -50 0 -68 88 -81 119 -18 12 25 11
31 -6 55 -25 33 -72 40 -96 13z"/>
<path d="M3172 4210 c-19 -8 -42 -45 -42 -69 0 -19 43 -51 70 -51 58 0 82 69
38 110 -24 22 -32 23 -66 10z"/>
<path d="M4765 4195 c-46 -45 -22 -105 43 -105 33 0 62 29 62 63 0 22 -43 67
-65 67 -9 0 -27 -11 -40 -25z"/>
<path d="M3998 4170 c-4 -14 -9 -63 -13 -110 -9 -144 -23 -319 -59 -749 -33
-389 -36 -414 -56 -433 -30 -28 -50 -79 -50 -127 0 -103 78 -181 180 -181 105
0 180 78 180 186 0 47 -29 117 -55 131 -12 7 -19 61 -35 253 -17 204 -71 871
-83 1015 -2 34 -4 36 -9 15z m70 -1304 c57 -31 81 -126 46 -186 -37 -61 -123
-79 -185 -37 -43 29 -59 60 -59 116 0 37 5 49 39 82 34 35 44 39 87 39 27 -1
59 -6 72 -14z"/>
<path d="M2580 3617 c-54 -27 -30 -117 31 -117 28 0 69 39 69 65 0 20 -40 65
-58 65 -9 0 -28 -6 -42 -13z"/>
<path d="M5350 3612 c-44 -36 -17 -112 40 -112 56 0 83 82 38 114 -29 21 -51
20 -78 -2z"/>
<path d="M2355 2805 c-30 -29 -32 -58 -5 -85 40 -40 110 -14 110 41 0 30 -9
43 -37 58 -31 16 -41 14 -68 -14z"/>
<path d="M5566 2809 c-29 -23 -33 -54 -10 -87 30 -43 114 -15 114 38 0 24 -42
70 -63 70 -8 0 -26 -9 -41 -21z"/>
<path d="M2587 2018 c-50 -18 -49 -98 1 -116 52 -18 103 28 87 78 -10 30 -54
49 -88 38z"/>
<path d="M5357 2013 c-22 -11 -27 -20 -27 -53 0 -33 5 -42 27 -53 34 -19 76
-5 91 28 25 55 -36 107 -91 78z"/>
<path d="M3167 1429 c-39 -23 -41 -86 -3 -111 20 -14 63 -8 79 10 50 55 -13
138 -76 101z"/>
<path d="M4760 1420 c-41 -41 -14 -110 41 -110 33 0 56 19 64 52 5 21 1 33
-19 52 -30 31 -59 33 -86 6z"/>
<path d="M3957 1202 c-30 -33 -19 -88 19 -103 71 -26 123 72 60 113 -20 14
-63 8 -79 -10z"/>
<path d="M2007 4752 c-90 -91 -127 -136 -127 -152 0 -16 37 -61 127 -152 106
-107 132 -128 157 -128 24 0 51 21 154 124 109 107 125 128 125 156 0 28 -16
49 -125 156 -103 103 -130 124 -154 124 -25 0 -51 -21 -157 -128z"/>
<path d="M5693 4768 c-135 -133 -150 -156 -129 -195 8 -16 66 -79 129 -140 93
-93 119 -113 143 -113 25 0 51 22 157 128 90 91 127 136 127 152 0 16 -37 61
-127 152 -106 106 -132 128 -157 128 -24 0 -50 -20 -143 -112z"/>
<path d="M2325 4430 l-99 -100 34 -35 c52 -54 78 -49 162 33 82 79 95 104 73
139 -26 39 -49 63 -60 63 -6 0 -55 -45 -110 -100z"/>
<path d="M5531 4498 c-51 -54 -44 -79 45 -165 90 -86 112 -92 164 -38 l34 35
-99 100 c-55 55 -103 100 -107 100 -4 0 -21 -15 -37 -32z"/>
</g>
</svg>
