<?xml version="1.0" standalone="no"?>
<!DOCTYPE svg PUBLIC "-//W3C//DTD SVG 20010904//EN"
 "http://www.w3.org/TR/2001/REC-SVG-20010904/DTD/svg10.dtd">
<svg version="1.0" xmlns="http://www.w3.org/2000/svg"
 width="512.000000pt" height="512.000000pt" viewBox="0 0 512.000000 512.000000"
 preserveAspectRatio="xMidYMid meet">

<g transform="translate(0.000000,512.000000) scale(0.100000,-0.100000)"
fill="#000000" stroke="none">
<path d="M2371 5110 c-539 -45 -1036 -244 -1438 -577 -199 -164 -404 -398
-547 -623 -26 -41 -81 -142 -121 -225 -342 -697 -347 -1527 -14 -2225 245
-511 659 -935 1159 -1184 378 -188 729 -270 1155 -269 209 0 366 16 539 54
652 143 1220 531 1587 1084 174 262 298 556 368 871 74 332 74 753 0 1088 -85
391 -265 764 -514 1071 -97 120 -306 322 -430 416 -360 274 -788 449 -1230
504 -148 19 -387 25 -514 15z m494 -1000 c220 -46 437 -140 612 -263 110 -78
272 -237 352 -346 106 -144 106 -121 2 -263 -49 -68 -148 -197 -220 -288
l-131 -165 8 -55 c4 -30 6 -118 6 -195 -1 -120 -5 -153 -28 -230 -87 -294
-300 -525 -575 -625 l-76 -28 -5 -205 c-4 -150 -9 -210 -18 -219 -10 -10 -74
-14 -261 -16 -319 -4 -294 -19 -301 188 l-5 152 -115 -91 c-63 -50 -168 -130
-233 -176 -137 -98 -116 -99 -258 6 -109 80 -268 242 -346 352 -124 176 -216
390 -264 617 -33 152 -33 448 0 600 48 227 140 441 264 617 79 113 257 291
370 370 208 146 467 247 727 283 109 15 381 4 495 -20z"/>
</g>
</svg>
