<?xml version="1.0" standalone="no"?>
<!DOCTYPE svg PUBLIC "-//W3C//DTD SVG 20010904//EN"
 "http://www.w3.org/TR/2001/REC-SVG-20010904/DTD/svg10.dtd">
<svg version="1.0" xmlns="http://www.w3.org/2000/svg"
 width="512.000000pt" height="512.000000pt" viewBox="0 0 512.000000 512.000000"
 preserveAspectRatio="xMidYMid meet">

<g transform="translate(0.000000,512.000000) scale(0.100000,-0.100000)"
fill="#000000" stroke="none">
<path d="M2380 5109 c-994 -67 -1864 -717 -2215 -1654 -265 -707 -196 -1527
181 -2173 408 -697 1091 -1151 1894 -1258 167 -22 473 -22 640 0 803 107 1486
561 1894 1258 453 776 453 1780 0 2556 -438 750 -1186 1213 -2054 1272 -159
11 -173 11 -340 -1z m-640 -1115 c132 -59 204 -199 178 -344 -19 -104 -80
-182 -178 -229 -48 -23 -67 -26 -160 -26 -92 0 -112 3 -161 26 -117 55 -183
159 -183 289 1 155 90 265 249 307 73 19 184 9 255 -23z m1877 -842 c194 -61
339 -204 413 -409 56 -155 60 -216 60 -860 l0 -583 -310 0 -310 0 0 539 c0
320 -4 560 -10 591 -33 176 -134 263 -303 262 -123 0 -222 -66 -288 -192 l-24
-45 -3 -577 -3 -578 -309 0 -310 0 0 920 0 920 310 0 310 0 0 -122 1 -123 21
30 c12 17 50 58 85 92 99 97 242 157 393 166 79 4 213 -11 277 -31z m-1727
-932 l0 -920 -310 0 -310 0 0 920 0 920 310 0 310 0 0 -920z"/>
</g>
</svg>
